<svg width="300" height="300" viewBox="0 0 300 300" fill="none" xmlns="http://www.w3.org/2000/svg">
  <!-- Main circle body -->
  <circle cx="150" cy="150" r="120" fill="white" />
  
  <!-- Eyes -->
  <path d="M110 130 C 90 110, 90 150, 110 130" fill="black" />
  <path d="M190 130 C 170 110, 170 150, 190 130" fill="black" />
  
  <!-- Smile -->
  <path d="M120 180 Q 150 210 180 180" stroke="black" stroke-width="5" fill="none" />
  
  <!-- Left hand -->
  <path d="M50 170 C 30 160, 20 140, 30 130 C 40 120, 60 130, 70 140" fill="white" stroke="black" stroke-width="2" />
  <path d="M30 130 C 25 125, 20 120, 15 125" fill="white" stroke="black" stroke-width="2" />
  <path d="M30 130 C 25 135, 20 140, 15 135" fill="white" stroke="black" stroke-width="2" />
  
  <!-- Right hand -->
  <path d="M230 120 C 250 110, 270 100, 280 110 C 290 120, 280 140, 270 150" fill="white" stroke="black" stroke-width="2" />
  <path d="M280 110 C 285 105, 290 100, 295 105" fill="white" stroke="black" stroke-width="2" />
  <path d="M280 110 C 285 115, 290 120, 295 115" fill="white" stroke="black" stroke-width="2" />
  
  <!-- Legs -->
  <path d="M100 250 C 90 270, 70 280, 60 270 C 50 260, 60 240, 70 230" fill="black" />
  <path d="M200 250 C 210 270, 230 280, 240 270 C 250 260, 240 240, 230 230" fill="black" />
</svg>

