<svg width="300" height="300" viewBox="0 0 300 300" fill="none" xmlns="http://www.w3.org/2000/svg">
  <!-- Parent character -->
  <circle cx="120" cy="120" r="80" fill="white" />
  
  <!-- Parent eyes -->
  <path d="M95 105 C 85 95, 85 115, 95 105" fill="black" />
  <path d="M145 105 C 135 95, 135 115, 145 105" fill="black" />
  
  <!-- Parent smile -->
  <path d="M100 140 Q 120 160 140 140" stroke="black" stroke-width="3" fill="none" />
  
  <!-- Child character -->
  <circle cx="220" cy="150" r="50" fill="white" />
  
  <!-- Child eyes -->
  <path d="M205 140 C 200 135, 200 145, 205 140" fill="black" />
  <path d="M235 140 C 230 135, 230 145, 235 140" fill="black" />
  
  <!-- Child smile -->
  <path d="M210 160 Q 220 170 230 160" stroke="black" stroke-width="2" fill="none" />
  
  <!-- Holding hands -->
  <path d="M170 150 C 180 155, 190 155, 200 150" stroke="black" stroke-width="3" fill="none" />
  
  <!-- Parent legs -->
  <path d="M90 200 C 85 210, 75 220, 70 215 C 65 210, 70 200, 75 195" fill="black" />
  <path d="M150 200 C 155 210, 165 220, 170 215 C 175 210, 170 200, 165 195" fill="black" />
  
  <!-- Child legs -->
  <path d="M205 200 C 200 210, 195 215, 190 210 C 185 205, 190 195, 195 190" fill="black" />
  <path d="M235 200 C 240 210, 245 215, 250 210 C 255 205, 250 195, 245 190" fill="black" />
</svg>

