<svg width="599" height="455" viewBox="0 0 599 455" fill="none" xmlns="http://www.w3.org/2000/svg">
<path d="M649.664 227.439C635.817 294.982 569.838 338.511 502.296 324.664C434.753 310.818 391.224 244.839 405.071 177.296C418.918 109.754 484.896 66.225 552.439 80.0716C619.981 93.9182 663.51 159.897 649.664 227.439Z" fill="white"/>
<path d="M599.817 192.919C605.82 163.635 595.494 136.782 576.752 132.94C570.422 131.642 563.942 133.135 557.904 136.811L561.286 170.654L541.923 153.425C537.437 160.632 533.928 169.348 531.948 179.005C525.945 208.289 536.271 235.142 555.013 238.984C573.754 242.826 593.813 222.202 599.817 192.919Z" fill="#101010"/>
<path d="M503.092 173.09C509.095 143.806 498.769 116.953 480.028 113.111C473.698 111.813 467.217 113.306 461.179 116.982L464.561 150.825L445.198 133.596C440.712 140.803 437.203 149.518 435.224 159.176C429.22 188.46 439.547 215.313 458.288 219.155C477.029 222.997 497.089 202.373 503.092 173.09Z" fill="#101010"/>
<path d="M502.049 342.345C502.829 342.997 503.451 343.817 503.869 344.744L523.389 387.893C524.868 391.162 524.987 394.886 523.72 398.243C522.452 401.601 519.903 404.318 516.633 405.798L411.816 453.2C405.144 456.217 396.719 453.417 393.909 445.966C391.838 440.465 390.501 435.097 390.603 429.485C390.713 423.791 392.301 418.353 395.313 412.669L444.217 355.591C444.735 354.901 445.284 354.092 445.865 353.246C448.962 348.698 452.966 342.82 458.556 346.1C463.473 348.906 469.73 351.151 475.432 350.56C479.087 350.188 483.505 348.294 487.406 346.117C488.276 345.623 489.135 345.124 489.983 344.618C493.408 342.585 496.608 340.699 499.368 340.973C500.354 341.223 501.27 341.692 502.049 342.345Z" fill="#101010"/>
<path d="M625.049 342.345C625.829 342.997 626.451 343.817 626.869 344.744L646.389 387.893C647.868 391.162 647.987 394.886 646.72 398.243C645.452 401.601 642.903 404.318 639.633 405.798L534.816 453.2C528.144 456.217 519.719 453.417 516.909 445.966C514.838 440.465 513.501 435.097 513.603 429.485C513.713 423.791 515.301 418.353 518.313 412.669L567.217 355.591C567.735 354.901 568.284 354.092 568.865 353.246C571.962 348.698 575.966 342.82 581.556 346.1C586.473 348.906 592.73 351.151 598.432 350.56C602.087 350.188 606.505 348.294 610.406 346.117C611.276 345.623 612.135 345.124 612.983 344.618C616.408 342.585 619.608 340.699 622.368 340.973C623.354 341.223 624.27 341.692 625.049 342.345Z" fill="#101010"/>
<rect width="436" height="115.281" rx="17.7356" fill="#5BA6F3"/>
<rect x="16.9966" y="17.3203" width="53.2068" height="53.2068" rx="26.6034" fill="white"/>
<path d="M23.3815 37.0069C23.3815 30.2483 26.9547 24.7694 31.3625 24.7694C32.8512 24.7694 34.2448 25.3944 35.4376 26.4826L33.1083 33.8252L38.2758 30.8882C38.9549 32.6882 39.3435 34.778 39.3435 37.0069C39.3435 43.7656 35.7703 49.2445 31.3625 49.2445C26.9547 49.2445 23.3815 43.7656 23.3815 37.0069Z" fill="#101010"/>
<path d="M46.7922 37.0069C46.7922 30.2483 50.3655 24.7694 54.7733 24.7694C56.262 24.7694 57.6555 25.3944 58.8483 26.4826L56.5191 33.8252L61.6866 30.8882C62.3656 32.6882 62.7543 34.778 62.7543 37.0069C62.7543 43.7656 59.181 49.2445 54.7733 49.2445C50.3655 49.2445 46.7922 43.7656 46.7922 37.0069Z" fill="#101010"/>
<path d="M36.1511 63.0782C38.0614 55.851 43.5027 45.7329 49.9848 63.0782" stroke="black" stroke-width="2.12827"/>
<path d="M16.3231 90.9609V80.5413H17.3429L21.5699 88.478H21.1265L25.3239 80.5413H26.3437V90.9609H25.2205V82.167H25.5752L21.7472 89.35H20.9491L17.0769 82.1523H17.4316V90.9609H16.3231ZM31.3166 91.094C30.7353 91.094 30.2525 90.9905 29.8682 90.7836C29.4938 90.5668 29.208 90.2466 29.011 89.8229C28.8238 89.3992 28.7302 88.8721 28.7302 88.2415V83.778H29.9273V88.2267C29.9273 88.6504 29.9815 89.0051 30.0899 89.2908C30.2081 89.5667 30.3904 89.7736 30.6367 89.9116C30.8831 90.0397 31.1885 90.1037 31.5531 90.1037C31.9669 90.1037 32.3265 90.0101 32.632 89.8229C32.9374 89.6357 33.1788 89.3746 33.3562 89.0396C33.5336 88.7046 33.6222 88.3105 33.6222 87.8572V83.778H34.8194V90.9609H33.6518V89.3056H33.8439C33.6469 89.8869 33.3217 90.3303 32.8685 90.6358C32.4251 90.9412 31.9078 91.094 31.3166 91.094ZM37.8869 93.6213L39.2318 90.5914V91.1087L36.0837 83.778H37.3843L39.956 90.0742H39.557L42.1582 83.778H43.4144L39.1431 93.6213H37.8869ZM48.4766 90.9609V83.778H49.6442V85.3742H49.4816C49.5999 85.0097 49.7723 84.6993 49.9989 84.4431C50.2354 84.1771 50.5113 83.98 50.8266 83.8519C51.1517 83.714 51.5064 83.645 51.8907 83.645C52.5016 83.645 52.9942 83.7928 53.3687 84.0884C53.7529 84.3741 54.0091 84.8225 54.1372 85.4333H53.9155C54.0929 84.8816 54.4082 84.448 54.8614 84.1327C55.3245 83.8076 55.8615 83.645 56.4724 83.645C57.0143 83.645 57.4577 83.7485 57.8026 83.9554C58.1573 84.1623 58.4233 84.4776 58.6007 84.9013C58.778 85.3151 58.8667 85.8422 58.8667 86.4827V90.9609H57.6695V86.5418C57.6695 85.8817 57.5562 85.3989 57.3296 85.0934C57.103 84.7781 56.7187 84.6205 56.1768 84.6205C55.7925 84.6205 55.4526 84.7141 55.157 84.9013C54.8713 85.0885 54.6496 85.3545 54.4919 85.6994C54.3441 86.0344 54.2702 86.4334 54.2702 86.8965V90.9609H53.0731V86.5418C53.0731 85.8817 52.9548 85.3989 52.7184 85.0934C52.4917 84.7781 52.1124 84.6205 51.5803 84.6205C51.1862 84.6205 50.8463 84.7141 50.5605 84.9013C50.2748 85.0885 50.0531 85.3545 49.8954 85.6994C49.7476 86.0344 49.6738 86.4334 49.6738 86.8965V90.9609H48.4766ZM63.3663 91.094C62.8736 91.094 62.4303 91.0003 62.0361 90.8131C61.6519 90.6161 61.3464 90.35 61.1198 90.015C60.8932 89.68 60.7799 89.3056 60.7799 88.8918C60.7799 88.3597 60.9129 87.941 61.1789 87.6355C61.4548 87.3301 61.9031 87.1133 62.5239 86.9852C63.1545 86.8571 64.0117 86.7931 65.0955 86.7931H65.7606V87.5764H65.1103C64.5093 87.5764 64.0067 87.5961 63.6028 87.6355C63.1988 87.6749 62.8786 87.7439 62.6421 87.8424C62.4056 87.941 62.2381 88.0691 62.1396 88.2267C62.0411 88.3843 61.9918 88.5814 61.9918 88.8179C61.9918 89.2219 62.1297 89.5519 62.4056 89.8081C62.6914 90.0643 63.0756 90.1924 63.5584 90.1924C63.9526 90.1924 64.2974 90.0988 64.593 89.9116C64.8985 89.7244 65.1349 89.4682 65.3024 89.143C65.4798 88.8179 65.5685 88.4435 65.5685 88.0198V86.3349C65.5685 85.724 65.4453 85.2855 65.199 85.0195C64.9526 84.7436 64.5487 84.6057 63.987 84.6057C63.5535 84.6057 63.1347 84.6697 62.7308 84.7978C62.3268 84.9161 61.913 85.1131 61.4893 85.389L61.0754 84.517C61.3316 84.3396 61.6223 84.1869 61.9474 84.0588C62.2726 83.9209 62.6125 83.8174 62.9672 83.7485C63.322 83.6795 63.6619 83.645 63.987 83.645C64.6078 83.645 65.1202 83.7485 65.5241 83.9554C65.9281 84.1524 66.2286 84.4579 66.4257 84.8717C66.6227 85.2757 66.7213 85.7979 66.7213 86.4384V90.9609H65.598V89.2908H65.731C65.6522 89.6653 65.4995 89.9855 65.2729 90.2515C65.0561 90.5175 64.7851 90.7245 64.46 90.8723C64.1348 91.0201 63.7703 91.094 63.3663 91.094ZM71.1444 91.094C70.4153 91.094 69.8635 90.8772 69.4891 90.4436C69.1246 90.0101 68.9423 89.3894 68.9423 88.5814V80.5413H70.1394V88.4927C70.1394 88.8376 70.1838 89.1283 70.2724 89.3647C70.371 89.6012 70.5138 89.7786 70.7011 89.8968C70.8883 90.015 71.1198 90.0742 71.3957 90.0742C71.5139 90.0742 71.6272 90.0692 71.7356 90.0594C71.8539 90.0397 71.9623 90.015 72.0608 89.9855L72.0312 90.9905C71.8736 91.0201 71.7209 91.0447 71.5731 91.0644C71.4351 91.0841 71.2922 91.094 71.1444 91.094Z" fill="#F7F7F7"/>
<rect x="104.197" y="17.3203" width="53.2068" height="53.2068" rx="26.6034" fill="white"/>
<path d="M110.582 40.1992C110.582 33.4406 114.155 27.9617 118.563 27.9617C120.052 27.9617 121.445 28.5867 122.638 29.6749L120.309 37.0174L125.476 34.0804C126.156 35.8804 126.544 37.9702 126.544 40.1992C126.544 46.9578 122.971 52.4368 118.563 52.4368C114.155 52.4368 110.582 46.9578 110.582 40.1992Z" fill="#101010"/>
<path d="M133.993 40.1992C133.993 33.4406 137.567 27.9617 141.974 27.9617C143.463 27.9617 144.857 28.5867 146.049 29.6749L143.72 37.0174L148.888 34.0804C149.567 35.8804 149.955 37.9702 149.955 40.1992C149.955 46.9578 146.382 52.4368 141.974 52.4368C137.567 52.4368 133.993 46.9578 133.993 40.1992Z" fill="#101010"/>
<path d="M119.095 59.8856C122.181 57.4766 130.971 54.1039 141.442 59.8856" stroke="black" stroke-width="2.12827"/>
<path d="M119.688 90.9609V80.5413H120.708L124.935 88.478H124.492L128.689 80.5413H129.709V90.9609H128.586V82.167H128.94L125.113 89.35H124.314L120.442 82.1523H120.797V90.9609H119.688ZM134.401 91.094C133.908 91.094 133.465 91.0003 133.071 90.8131C132.687 90.6161 132.381 90.35 132.155 90.015C131.928 89.68 131.815 89.3056 131.815 88.8918C131.815 88.3597 131.948 87.941 132.214 87.6355C132.49 87.3301 132.938 87.1133 133.559 86.9852C134.189 86.8571 135.046 86.7931 136.13 86.7931H136.795V87.5764H136.145C135.544 87.5764 135.042 87.5961 134.638 87.6355C134.234 87.6749 133.913 87.7439 133.677 87.8424C133.44 87.941 133.273 88.0691 133.174 88.2267C133.076 88.3843 133.027 88.5814 133.027 88.8179C133.027 89.2219 133.164 89.5519 133.44 89.8081C133.726 90.0643 134.11 90.1924 134.593 90.1924C134.987 90.1924 135.332 90.0988 135.628 89.9116C135.933 89.7244 136.17 89.4682 136.337 89.143C136.515 88.8179 136.603 88.4435 136.603 88.0198V86.3349C136.603 85.724 136.48 85.2855 136.234 85.0195C135.987 84.7436 135.583 84.6057 135.022 84.6057C134.588 84.6057 134.17 84.6697 133.766 84.7978C133.362 84.9161 132.948 85.1131 132.524 85.389L132.11 84.517C132.366 84.3396 132.657 84.1869 132.982 84.0588C133.307 83.9209 133.647 83.8174 134.002 83.7485C134.357 83.6795 134.697 83.645 135.022 83.645C135.643 83.645 136.155 83.7485 136.559 83.9554C136.963 84.1524 137.263 84.4579 137.46 84.8717C137.658 85.2757 137.756 85.7979 137.756 86.4384V90.9609H136.633V89.2908H136.766C136.687 89.6653 136.534 89.9855 136.308 90.2515C136.091 90.5175 135.82 90.7245 135.495 90.8723C135.17 91.0201 134.805 91.094 134.401 91.094ZM142.179 91.094C141.45 91.094 140.898 90.8772 140.524 90.4436C140.159 90.0101 139.977 89.3894 139.977 88.5814V80.5413H141.174V88.4927C141.174 88.8376 141.219 89.1283 141.307 89.3647C141.406 89.6012 141.549 89.7786 141.736 89.8968C141.923 90.015 142.155 90.0742 142.43 90.0742C142.549 90.0742 142.662 90.0692 142.77 90.0594C142.889 90.0397 142.997 90.015 143.096 89.9855L143.066 90.9905C142.908 91.0201 142.756 91.0447 142.608 91.0644C142.47 91.0841 142.327 91.094 142.179 91.094Z" fill="#F7F7F7"/>
<rect x="191.397" y="17.3203" width="53.2068" height="53.2068" rx="26.6034" fill="white"/>
<path d="M197.782 40.1992C197.782 33.4406 201.355 27.9617 205.763 27.9617C207.252 27.9617 208.646 28.5867 209.838 29.6749L207.509 37.0174L212.677 34.0804C213.356 35.8804 213.744 37.9702 213.744 40.1992C213.744 46.9578 210.171 52.4368 205.763 52.4368C201.355 52.4368 197.782 46.9578 197.782 40.1992Z" fill="#101010"/>
<path d="M221.193 40.1992C221.193 33.4406 224.766 27.9617 229.174 27.9617C230.663 27.9617 232.057 28.5867 233.249 29.6749L230.92 37.0174L236.088 34.0804C236.767 35.8804 237.155 37.9702 237.155 40.1992C237.155 46.9578 233.582 52.4368 229.174 52.4368C224.766 52.4368 221.193 46.9578 221.193 40.1992Z" fill="#101010"/>
<path d="M207.359 59.6698C211.442 61.3745 219.739 52.1899 227.578 59.6698" stroke="black" stroke-width="2.12827"/>
<path d="M194.627 90.9609V80.5413H195.573L202.209 89.3943H201.854V80.5413H202.977V90.9609H202.061L195.425 82.1079H195.765V90.9609H194.627ZM208.39 91.094C207.691 91.094 207.085 90.9412 206.572 90.6358C206.06 90.3303 205.661 89.9017 205.375 89.35C205.099 88.7883 204.961 88.1282 204.961 87.3695C204.961 86.6108 205.099 85.9556 205.375 85.4038C205.661 84.8422 206.06 84.4086 206.572 84.1032C207.085 83.7977 207.691 83.645 208.39 83.645C209.09 83.645 209.696 83.7977 210.208 84.1032C210.72 84.4086 211.115 84.8422 211.39 85.4038C211.676 85.9556 211.819 86.6108 211.819 87.3695C211.819 88.1282 211.676 88.7883 211.39 89.35C211.115 89.9017 210.72 90.3303 210.208 90.6358C209.696 90.9412 209.09 91.094 208.39 91.094ZM208.39 90.1333C209.07 90.1333 209.607 89.8968 210.001 89.4239C210.405 88.9411 210.607 88.2513 210.607 87.3547C210.607 86.4679 210.405 85.7881 210.001 85.3151C209.607 84.8422 209.07 84.6057 208.39 84.6057C207.72 84.6057 207.183 84.8422 206.779 85.3151C206.375 85.7881 206.173 86.4679 206.173 87.3547C206.173 88.2513 206.375 88.9411 206.779 89.4239C207.183 89.8968 207.72 90.1333 208.39 90.1333ZM213.617 90.9609V83.778H214.785V85.4777H214.637C214.805 84.8963 215.095 84.4579 215.509 84.1623C215.923 83.8568 216.47 83.6795 217.15 83.6302L217.578 83.5859L217.667 84.6205L216.913 84.7091C216.243 84.7683 215.726 84.985 215.361 85.3594C215.007 85.724 214.829 86.2265 214.829 86.867V90.9609H213.617ZM218.944 90.9609V83.778H220.111V85.3742H219.949C220.067 85.0097 220.239 84.6993 220.466 84.4431C220.703 84.1771 220.978 83.98 221.294 83.8519C221.619 83.714 221.974 83.645 222.358 83.645C222.969 83.645 223.461 83.7928 223.836 84.0884C224.22 84.3741 224.476 84.8225 224.604 85.4333H224.383C224.56 84.8816 224.875 84.448 225.329 84.1327C225.792 83.8076 226.329 83.645 226.94 83.645C227.482 83.645 227.925 83.7485 228.27 83.9554C228.624 84.1623 228.891 84.4776 229.068 84.9013C229.245 85.3151 229.334 85.8422 229.334 86.4827V90.9609H228.137V86.5418C228.137 85.8817 228.023 85.3989 227.797 85.0934C227.57 84.7781 227.186 84.6205 226.644 84.6205C226.26 84.6205 225.92 84.7141 225.624 84.9013C225.338 85.0885 225.117 85.3545 224.959 85.6994C224.811 86.0344 224.737 86.4334 224.737 86.8965V90.9609H223.54V86.5418C223.54 85.8817 223.422 85.3989 223.186 85.0934C222.959 84.7781 222.58 84.6205 222.048 84.6205C221.653 84.6205 221.313 84.7141 221.028 84.9013C220.742 85.0885 220.52 85.3545 220.363 85.6994C220.215 86.0344 220.141 86.4334 220.141 86.8965V90.9609H218.944ZM233.834 91.094C233.341 91.094 232.897 91.0003 232.503 90.8131C232.119 90.6161 231.814 90.35 231.587 90.015C231.36 89.68 231.247 89.3056 231.247 88.8918C231.247 88.3597 231.38 87.941 231.646 87.6355C231.922 87.3301 232.37 87.1133 232.991 86.9852C233.622 86.8571 234.479 86.7931 235.563 86.7931H236.228V87.5764H235.578C234.976 87.5764 234.474 87.5961 234.07 87.6355C233.666 87.6749 233.346 87.7439 233.109 87.8424C232.873 87.941 232.705 88.0691 232.607 88.2267C232.508 88.3843 232.459 88.5814 232.459 88.8179C232.459 89.2219 232.597 89.5519 232.873 89.8081C233.159 90.0643 233.543 90.1924 234.026 90.1924C234.42 90.1924 234.765 90.0988 235.06 89.9116C235.366 89.7244 235.602 89.4682 235.77 89.143C235.947 88.8179 236.036 88.4435 236.036 88.0198V86.3349C236.036 85.724 235.913 85.2855 235.666 85.0195C235.42 84.7436 235.016 84.6057 234.454 84.6057C234.021 84.6057 233.602 84.6697 233.198 84.7978C232.794 84.9161 232.38 85.1131 231.956 85.389L231.543 84.517C231.799 84.3396 232.09 84.1869 232.415 84.0588C232.74 83.9209 233.08 83.8174 233.434 83.7485C233.789 83.6795 234.129 83.645 234.454 83.645C235.075 83.645 235.587 83.7485 235.991 83.9554C236.395 84.1524 236.696 84.4579 236.893 84.8717C237.09 85.2757 237.188 85.7979 237.188 86.4384V90.9609H236.065V89.2908H236.198C236.119 89.6653 235.967 89.9855 235.74 90.2515C235.523 90.5175 235.252 90.7245 234.927 90.8723C234.602 91.0201 234.237 91.094 233.834 91.094ZM241.612 91.094C240.883 91.094 240.331 90.8772 239.956 90.4436C239.592 90.0101 239.409 89.3894 239.409 88.5814V80.5413H240.607V88.4927C240.607 88.8376 240.651 89.1283 240.74 89.3647C240.838 89.6012 240.981 89.7786 241.168 89.8968C241.355 90.015 241.587 90.0742 241.863 90.0742C241.981 90.0742 242.094 90.0692 242.203 90.0594C242.321 90.0397 242.429 90.015 242.528 89.9855L242.498 90.9905C242.341 91.0201 242.188 91.0447 242.04 91.0644C241.902 91.0841 241.759 91.094 241.612 91.094Z" fill="#F7F7F7"/>
<rect x="278.597" y="17.3203" width="53.2068" height="53.2068" rx="26.6034" fill="white"/>
<path d="M284.982 38.8396C284.982 32.081 288.555 26.602 292.963 26.602C294.452 26.602 295.845 27.227 297.038 28.3153L294.709 35.6578L299.876 32.7208C300.555 34.5208 300.944 36.6106 300.944 38.8396C300.944 45.5982 297.371 51.0771 292.963 51.0771C288.555 51.0771 284.982 45.5982 284.982 38.8396Z" fill="#101010"/>
<path d="M308.393 38.8396C308.393 32.081 311.966 26.602 316.374 26.602C317.863 26.602 319.256 27.227 320.449 28.3153L318.12 35.6578L323.287 32.7208C323.966 34.5208 324.355 36.6106 324.355 38.8396C324.355 45.5982 320.782 51.0771 316.374 51.0771C311.966 51.0771 308.393 45.5982 308.393 38.8396Z" fill="#101010"/>
<path d="M292.845 55.3336C296.11 59.7949 305.412 66.0406 316.492 55.3336" stroke="black" stroke-width="2.12827"/>
<path d="M291.641 90.9611V80.5414H295.809C296.873 80.5414 297.701 80.7779 298.292 81.2508C298.883 81.7238 299.179 82.3938 299.179 83.2609C299.179 83.9112 298.987 84.4531 298.602 84.8866C298.228 85.3202 297.716 85.6059 297.065 85.7438V85.5369C297.558 85.596 297.982 85.7389 298.336 85.9655C298.691 86.1823 298.962 86.473 299.149 86.8375C299.336 87.1922 299.43 87.611 299.43 88.0938C299.43 88.7146 299.292 89.2417 299.016 89.6752C298.75 90.0989 298.361 90.4191 297.849 90.6359C297.336 90.8527 296.716 90.9611 295.986 90.9611H291.641ZM292.824 89.9856H295.868C296.183 89.9856 296.464 89.961 296.711 89.9117C296.967 89.8624 297.188 89.7885 297.376 89.69C297.563 89.5816 297.721 89.4535 297.849 89.3057C297.977 89.1579 298.07 88.9806 298.129 88.7737C298.198 88.5668 298.233 88.3352 298.233 88.079C298.233 87.813 298.198 87.5814 298.129 87.3844C298.07 87.1775 297.977 87.0001 297.849 86.8523C297.721 86.6947 297.563 86.5666 297.376 86.468C297.188 86.3695 296.967 86.2956 296.711 86.2463C296.464 86.1971 296.183 86.1724 295.868 86.1724H292.824V89.9856ZM292.824 85.197H295.632C296.4 85.197 296.982 85.0393 297.376 84.724C297.78 84.4087 297.982 83.9555 297.982 83.3643C297.982 82.7534 297.78 82.2953 297.376 81.9898C296.982 81.6745 296.4 81.5169 295.632 81.5169H292.824V85.197ZM301.319 81.9898V80.6449H302.797V81.9898H301.319ZM301.466 90.9611V83.7781H302.664V90.9611H301.466ZM308.138 91.0941C307.38 91.0941 306.724 90.9463 306.173 90.6507C305.631 90.3452 305.207 89.9166 304.902 89.3649C304.606 88.8131 304.458 88.1529 304.458 87.3844C304.458 86.6355 304.606 85.9852 304.902 85.4335C305.197 84.8718 305.601 84.4334 306.113 84.1181C306.636 83.8028 307.237 83.6451 307.917 83.6451C308.567 83.6451 309.124 83.788 309.587 84.0737C310.05 84.3595 310.405 84.7635 310.651 85.2857C310.907 85.8079 311.035 86.4336 311.035 87.1627V87.6209H305.375V86.8375H310.237L310.001 87.0297C310.001 86.2414 309.823 85.6305 309.468 85.197C309.124 84.7536 308.616 84.5319 307.946 84.5319C307.444 84.5319 307.015 84.6501 306.66 84.8866C306.315 85.1132 306.054 85.4335 305.877 85.8473C305.7 86.2513 305.611 86.7242 305.611 87.2661V87.3548C305.611 87.9559 305.705 88.4633 305.892 88.8771C306.089 89.291 306.38 89.6063 306.764 89.823C307.148 90.0299 307.606 90.1334 308.138 90.1334C308.562 90.1334 308.971 90.0694 309.365 89.9413C309.769 89.8033 310.148 89.5816 310.503 89.2762L310.917 90.1186C310.592 90.4142 310.178 90.6507 309.675 90.828C309.173 91.0054 308.661 91.0941 308.138 91.0941ZM312.768 90.9611V83.7781H313.935V85.3743H313.773C313.98 84.8029 314.315 84.3743 314.778 84.0885C315.251 83.7929 315.793 83.6451 316.403 83.6451C316.975 83.6451 317.448 83.7486 317.822 83.9555C318.207 84.1526 318.492 84.4629 318.68 84.8866C318.867 85.3103 318.96 85.8424 318.96 86.4828V90.9611H317.763V86.5567C317.763 86.1133 317.704 85.7488 317.586 85.463C317.477 85.1773 317.3 84.9654 317.054 84.8275C316.817 84.6896 316.507 84.6206 316.123 84.6206C315.689 84.6206 315.31 84.7142 314.985 84.9014C314.659 85.0886 314.408 85.3497 314.231 85.6847C314.054 86.0197 313.965 86.4139 313.965 86.8671V90.9611H312.768Z" fill="white"/>
<path d="M348.8 8.8678C348.8 3.97025 352.77 0 357.668 0L427.132 0C432.03 0 436 3.97025 436 8.8678V106.414C436 111.311 432.03 115.281 427.132 115.281H357.668C352.77 115.281 348.8 111.311 348.8 106.414V8.8678Z" fill="#2687EF"/>
<rect x="365.797" y="17.3203" width="53.2068" height="53.2068" rx="26.6034" fill="white"/>
<path d="M372.182 35.5388C372.182 28.7802 375.755 23.3013 380.163 23.3013C381.652 23.3013 383.045 23.9263 384.238 25.0145L381.909 32.357L387.076 29.42C387.755 31.22 388.144 33.3098 388.144 35.5388C388.144 42.2974 384.571 47.7764 380.163 47.7764C375.755 47.7764 372.182 42.2974 372.182 35.5388Z" fill="#101010"/>
<path d="M395.593 35.5388C395.593 28.7802 399.166 23.3013 403.574 23.3013C405.062 23.3013 406.456 23.9263 407.649 25.0145L405.319 32.357L410.487 29.42C411.166 31.22 411.555 33.3098 411.555 35.5388C411.555 42.2974 407.981 47.7764 403.574 47.7764C399.166 47.7764 395.593 42.2974 395.593 35.5388Z" fill="#101010"/>
<path d="M382.823 52.0327C388.782 69.382 396.753 65.3239 400.913 52.0327H382.823Z" fill="black" stroke="black" stroke-width="2.12827"/>
<path d="M386.548 61.4821C387.984 58.4669 391.524 54.9052 393.017 64.2698C392.156 64.8019 389.42 64.8874 386.548 61.4821Z" fill="#D03F47"/>
<path d="M363.398 90.9609V80.5413H364.418L368.645 88.478H368.202L372.399 80.5413H373.419V90.9609H372.296V82.167H372.65L368.822 89.35H368.024L364.152 82.1523H364.507V90.9609H363.398ZM378.392 91.094C377.81 91.094 377.328 90.9905 376.943 90.7836C376.569 90.5668 376.283 90.2466 376.086 89.8229C375.899 89.3992 375.805 88.8721 375.805 88.2415V83.778H377.002V88.2267C377.002 88.6504 377.057 89.0051 377.165 89.2908C377.283 89.5667 377.466 89.7736 377.712 89.9116C377.958 90.0397 378.264 90.1037 378.628 90.1037C379.042 90.1037 379.402 90.0101 379.707 89.8229C380.013 89.6357 380.254 89.3746 380.431 89.0396C380.609 88.7046 380.697 88.3105 380.697 87.8572V83.778H381.895V90.9609H380.727V89.3056H380.919C380.722 89.8869 380.397 90.3303 379.944 90.6358C379.5 90.9412 378.983 91.094 378.392 91.094ZM384.962 93.6213L386.307 90.5914V91.1087L383.159 83.778H384.459L387.031 90.0742H386.632L389.233 83.778H390.49L386.218 93.6213H384.962ZM399.158 91.094C398.508 91.094 397.946 90.9265 397.473 90.5914C397.01 90.2564 396.7 89.8081 396.542 89.2465H396.69V90.9609H395.522V80.5413H396.719V85.4481H396.542C396.709 84.8963 397.025 84.4579 397.488 84.1327C397.951 83.8076 398.508 83.645 399.158 83.645C399.808 83.645 400.37 83.7977 400.843 84.1032C401.316 84.3988 401.68 84.8274 401.937 85.389C402.203 85.9408 402.336 86.6009 402.336 87.3695C402.336 88.1282 402.203 88.7883 401.937 89.35C401.68 89.9017 401.311 90.3303 400.828 90.6358C400.355 90.9412 399.798 91.094 399.158 91.094ZM398.907 90.1333C399.587 90.1333 400.124 89.8968 400.518 89.4239C400.922 88.9411 401.124 88.2563 401.124 87.3695C401.124 86.4728 400.922 85.7881 400.518 85.3151C400.124 84.8422 399.587 84.6057 398.907 84.6057C398.237 84.6057 397.7 84.8422 397.296 85.3151C396.892 85.7881 396.69 86.4728 396.69 87.3695C396.69 88.2563 396.892 88.9411 397.296 89.4239C397.7 89.8968 398.237 90.1333 398.907 90.1333ZM403.991 81.9897V80.6447H405.469V81.9897H403.991ZM404.139 90.9609V83.778H405.336V90.9609H404.139ZM410.811 91.094C410.052 91.094 409.397 90.9462 408.845 90.6506C408.303 90.3451 407.879 89.9165 407.574 89.3647C407.278 88.813 407.131 88.1528 407.131 87.3843C407.131 86.6354 407.278 85.9851 407.574 85.4333C407.87 84.8717 408.274 84.4333 408.786 84.118C409.308 83.8027 409.909 83.645 410.589 83.645C411.239 83.645 411.796 83.7879 412.259 84.0736C412.722 84.3594 413.077 84.7633 413.323 85.2855C413.579 85.8078 413.708 86.4334 413.708 87.1626V87.6207H408.047V86.8374H412.909L412.673 87.0295C412.673 86.2413 412.496 85.6304 412.141 85.1969C411.796 84.7535 411.289 84.5318 410.619 84.5318C410.116 84.5318 409.687 84.65 409.333 84.8865C408.988 85.1131 408.727 85.4333 408.549 85.8472C408.372 86.2512 408.283 86.7241 408.283 87.266V87.3547C408.283 87.9557 408.377 88.4632 408.564 88.877C408.761 89.2908 409.052 89.6061 409.436 89.8229C409.82 90.0298 410.279 90.1333 410.811 90.1333C411.234 90.1333 411.643 90.0692 412.037 89.9411C412.441 89.8032 412.821 89.5815 413.175 89.2761L413.589 90.1185C413.264 90.4141 412.85 90.6506 412.348 90.8279C411.845 91.0053 411.333 91.094 410.811 91.094ZM415.44 90.9609V83.778H416.608V85.3742H416.445C416.652 84.8027 416.987 84.3741 417.45 84.0884C417.923 83.7928 418.465 83.645 419.076 83.645C419.647 83.645 420.12 83.7485 420.495 83.9554C420.879 84.1524 421.165 84.4628 421.352 84.8865C421.539 85.3102 421.633 85.8422 421.633 86.4827V90.9609H420.436V86.5566C420.436 86.1132 420.377 85.7486 420.258 85.4629C420.15 85.1772 419.973 84.9653 419.726 84.8274C419.49 84.6894 419.179 84.6205 418.795 84.6205C418.362 84.6205 417.982 84.7141 417.657 84.9013C417.332 85.0885 417.081 85.3496 416.903 85.6846C416.726 86.0196 416.637 86.4137 416.637 86.867V90.9609H415.44Z" fill="#F7F7F7"/>
<path d="M391.385 143.171C406.017 145.216 404.855 129.68 402.446 121.656L380.507 98.4658C375.959 93.6889 365.845 87.7577 361.773 102.248C356.682 120.36 373.095 140.616 391.385 143.171Z" fill="black" stroke="black"/>
<path d="M366.813 82.4459C369.699 88.3973 374.504 100.698 370.638 102.292C371.226 109.281 376.429 124.094 392.531 127.431C408.632 130.768 419.008 107.945 422.182 96.1158C432.563 90.8768 404.804 46.4188 389.626 24.8446C388.005 23.1771 383.464 21.9887 378.272 30.5748C373.081 39.1609 383.327 65.113 389.099 77.0157C394.235 87.0716 394.027 96.0069 385.269 87.0025C380.108 81.6955 383.546 75.8807 373.789 72.2135C364.032 68.5463 365.073 77.5071 366.813 82.4459Z" fill="white"/>
<path d="M459.172 238.212C470.543 277.067 499.59 276.296 520.422 254.279L459.172 238.212Z" fill="black" stroke="black" stroke-width="4.25654"/>
</svg>
