<svg width="300" height="300" viewBox="0 0 300 300" fill="none" xmlns="http://www.w3.org/2000/svg">
  <!-- Main circle body -->
  <circle cx="150" cy="150" r="120" fill="white" />
  
  <!-- Glasses -->
  <rect x="90" y="120" width="50" height="30" rx="15" stroke="black" stroke-width="5" fill="none" />
  <rect x="160" y="120" width="50" height="30" rx="15" stroke="black" stroke-width="5" fill="none" />
  <path d="M140 135 L160 135" stroke="black" stroke-width="5" />
  <path d="M90 135 L70 125" stroke="black" stroke-width="5" />
  
  <!-- Eyes behind glasses -->
  <circle cx="115" cy="135" r="8" fill="black" />
  <circle cx="185" cy="135" r="8" fill="black" />
  
  <!-- Smile -->
  <path d="M120 180 Q 150 210 180 180" stroke="black" stroke-width="5" fill="none" />
  
  <!-- Book in hand -->
  <rect x="70" y="200" width="60" height="40" fill="blue" />
  <rect x="70" y="200" width="60" height="5" fill="darkblue" />
  
  <!-- Left hand holding book -->
  <path d="M70 220 C 60 210, 50 200, 60 190 C 70 180, 80 190, 90 200" fill="white" stroke="black" stroke-width="2" />
  
  <!-- Right hand -->
  <path d="M230 120 C 250 110, 270 100, 280 110 C 290 120, 280 140, 270 150" fill="white" stroke="black" stroke-width="2" />
  <path d="M280 110 C 285 105, 290 100, 295 105" fill="white" stroke="black" stroke-width="2" />
  <path d="M280 110 C 285 115, 290 120, 295 115" fill="white" stroke="black" stroke-width="2" />
  
  <!-- Legs -->
  <path d="M100 250 C 90 270, 70 280, 60 270 C 50 260, 60 240, 70 230" fill="black" />
  <path d="M200 250 C 210 270, 230 280, 240 270 C 250 260, 240 240, 230 230" fill="black" />
</svg>

